# xmcd CD database file
# Copyright (C) 1997 Ti Kan
# 
# Track frame offsets:
#     182
#     20570
#     37722
#     50672
#     62730
#     74820
#     88922
#     103835
#     117115
#     128587
#     142007
#     151685
#     168972
#     191847
# 
# Disc length: 2792 seconds
# 
# Revision: 1
# Processed by: cddbd v1.4b41PL1 Copyright (c) Steve Scherf et al.
# Submitted via: DiscPlay 4.0.4
# 
DISCID=c40ae60e
DTITLE=Etta James - The Gospel Soul Of Etta James
DYEAR=1900
DGENRE=
TTITLE0=Oh Happy Day
TTITLE1=Blowin' In The Wind
TTITLE2=Swing Low Sweet Chariot
TTITLE3=He's Got The Whole World In His Hands
TTITLE4=I'll Make It Alright
TTITLE5=Down By The Riverside
TTITLE6=To My Father's House
TTITLE7=Amen/ This Little Light Of Mine
TTITLE8=Jesus Lover Of My Soul
TTITLE9=We'll Fly You To The Promised Land
TTITLE10=Jesus Is My Kind Of People
TTITLE11=Walk Over God's Heaven
TTITLE12=Lord Don't Move That Mountain
TTITLE13=Storms Of Troubled Times
EXTD=
EXTT0=
EXTT1=
EXTT2=
EXTT3=
EXTT4=
EXTT5=
EXTT6=
EXTT7=
EXTT8=
EXTT9=
EXTT10=
EXTT11=
EXTT12=
EXTT13=
PLAYORDER=
